Matru Ki Bijlee Ka Mandola 2013 Hindi Movies HDDVD Rip ESubs Sample Included ~ rDX

Screen Shots :
 
http://myimghosting.serveftp.com/13/MatruKiBijleeKaMandolaDVD.html
 
http://myimghost.cwahi.net/MatruKiBijleeKaMandolaDVD.html


Format                                   : MPEG-4
Format profile                           : Base Media
Codec ID                                 : isom
File size                                : 697 MiB
Duration                                 : 2h 27mn
Overall bit rate mode                    : Variable
Overall bit rate                         : 661 Kbps
Writing application                      : Lavf52.34.0

Video
ID                                       : 1
Format                                   : AVC
Format/Info                              : Advanced Video Codec
Format profile                           : High@L3.1
Format settings, CABAC                   : Yes
Format settings, ReFrames                : 3 frames
Codec ID                                 : avc1
Codec ID/Info                            : Advanced Video Coding
Duration                                 : 2h 27mn
Bit rate mode                            : Variable
Bit rate                                 : 594 Kbps
Maximum bit rate                         : 17.5 Mbps
Width                                    : 640 pixels
Height                                   : 266 pixels
Display aspect ratio                     : 2.40:1
Frame rate mode                          : Constant
Frame rate                               : 23.976 fps
Color space                              : YUV
Chroma subsampling                       : 4:2:0
Bit depth                                : 8 bits
Scan type                                : Progressive
Bits/(Pixel*Frame)                       : 0.146
Stream size                              : 627 MiB (90%)

Audio
ID                                       : 2
Format                                   : AAC
Format/Info                              : Advanced Audio Codec
Format profile                           : HE-AAC / LC
Codec ID                                 : 40
Duration                                 : 2h 27mn
Bit rate mode                            : Variable
Bit rate                                 : 64.0 Kbps
Channel(s)                               : 2 channels
Channel positions                        : Front: L R
Sampling rate                            : 48.0 KHz / 24.0 KHz
Compression mode                         : Lossy
Stream size                              : 67.5 MiB (10%)